<svg xmlns="http://www.w3.org/2000/svg" width="1600" height="1600" version="1.0" viewBox="0 0 1200 1200"><rect fill="#000" width="100%" height="100%"/><g fill="#fff"><path d="M698 160.6c-69.7 6.2-127.1 28.9-180 71.2-5.2 4.2-33.1 31-62 59.7s-56.5 55.7-61.5 60.1c-37 33-81.7 61.5-127 81.1-4.4 1.9-8.3 3.7-8.7 4.1S371.6 551.1 510.5 690l252.4 252.4 1.7-3.9c11.4-27.7 29.4-60.5 47.1-86.2 21.5-31.3 31.6-42.7 94.3-105.8 51.4-51.8 62.4-63.7 75.7-82.5 28.1-39.6 47.5-88.5 54.7-138 10-68.4-3.7-142.2-37-201.2-3.3-5.6-6-10.6-6.2-10.9-.1-.3 3.5-2.8 8-5.6 15.1-9.2 27.9-24.8 33.7-40.8 8.7-24.1 5.9-49.8-7.9-70.9-20.3-31.1-57.9-44-93.1-32.1-17.5 6-33 18.8-43.1 35.7l-4 6.8-7.2-4.1c-37.1-21.1-77.5-34.6-120.6-40.4-11-1.5-51.5-2.7-61-1.9M146.3 441.9c-11.4 4.2-20.1 13.1-24.3 24.8-1.9 5.2-2.2 7.7-1.8 15 .8 16.7-7.9 6.8 116.9 131.8 61 61.1 110.9 111.4 110.9 111.8s-.5.7-1.1.7c-2.2 0-17.8 7.8-24 12.1-27.6 18.7-44.6 53.6-42.6 87.3 1.6 25.4 11.7 47.9 29.6 65.6 12.9 12.7 27.6 21.1 45 25.8 8.2 2.1 11.8 2.5 24.6 2.6 17.9 0 27.7-2 42.1-8.8 22.5-10.7 37.8-25.7 48.4-47.8 2.2-4.5 4-8.8 4-9.5s.3-1.3.7-1.3 51 50.1 112.3 111.3c121.6 121.5 114 114.5 127.9 116.8 25.7 4.1 49.3-19.7 45.1-45.6-2.3-14.2 19.5 8.4-292.2-303.1-321.1-321-289-290.5-306.8-291.1-7.5-.3-10.6.1-14.7 1.6"/></g></svg>